#!OML:ASF E:\Steps\Project 1\Capture day 1\Session 2\Subject.ASF
:FULLY-SPECIFIED
:DEGREES
358
root -1.11133 17.9762 20.9671 -154.055 -3.32325 178.185
lowerback -26.2744 -1.3393 -7.50672
upperback -0.526669 0.148783 -0.163396
thorax 14.1498 -0.612112 4.15514
lowerneck -2.18189 -1.9119 -0.858774
upperneck 27.4882 -6.24273 1.91363
head 9.04203 -3.88489 0.120853
rclavicle -1.64991e-014 7.35503e-015
rhumerus -38.1393 -25.3883 -73.499
rradius 19.7185
rwrist 9.9263
rhand -9.55737 -56.9998
rfingers 7.12502
rthumb 16.4099 633.674
lclavicle -1.64991e-014 7.35503e-015
lhumerus -28.1778 1.629 84.4501
lradius 19.975
lwrist -5.41134
lhand -21.2054 -12.157
lfingers 7.12502
lthumb 5.17604 17.7598
rfemur -23.6741 4.03634 19.7977
rtibia 5.51258
rfoot -16.7839 -0.575969
rtoes -15.5863
lfemur -24.5003 -6.56874 -23.163
ltibia 6.72683
lfoot -5.83319 -3.51956
ltoes -32.9734
359
root -1.11423 17.9771 20.9702 -154.098 -3.35297 178.2
lowerback -26.1151 -1.33334 -7.46836
upperback -0.529888 0.136407 -0.181708
thorax 14.0595 -0.609092 4.10644
lowerneck -2.14456 -1.97858 -0.856587
upperneck 27.6066 -6.39638 1.95092
head 9.08188 -3.96358 0.117452
rclavicle 7.7526e-015 -1.78906e-015
rhumerus -38.2969 -25.1978 -73.6005
rradius 19.9635
rwrist 9.86587
rhand -8.86682 -58.3914
rfingers 7.12502
rthumb 17.0746 632.339
lclavicle 7.7526e-015 -1.78906e-015
lhumerus -28.1548 1.41493 84.4348
lradius 20.1493
lwrist -5.3574
lhand -21.3169 -13.1528
lfingers 7.12502
lthumb 5.06832 16.7666
rfemur -23.6464 3.99661 19.8113
rtibia 5.52686
rfoot -16.7738 -0.566823
rtoes -15.7209
lfemur -24.479 -6.59924 -23.1458
ltibia 6.73667
lfoot -5.82319 -3.43413
ltoes -33.607
360
root -1.11877 17.9791 20.9728 -154.105 -3.44645 178.189
lowerback -25.9934 -1.36239 -7.42743
upperback -0.530752 0.0772498 -0.174105
thorax 13.9987 -0.629333 4.06926
lowerneck -2.0761 -2.00813 -0.886818
upperneck 27.6176 -6.46079 1.98025
head 9.07647 -3.99922 0.128258
rclavicle -4.17448e-015 1.64991e-014
rhumerus -38.3584 -24.8965 -73.7066
rradius 20.1194
rwrist 9.52614
rhand -8.64045 -58.7295
rfingers 7.12502
rthumb 17.2925 632.02
lclavicle -4.17448e-015 1.64991e-014
lhumerus -28.0767 1.26851 84.4816
lradius 20.2832
lwrist -5.00586
lhand -21.358 -13.5676
lfingers 7.12502
lthumb 5.0287 16.3527
rfemur -23.6318 3.83468 19.8304
rtibia 5.52387
rfoot -16.7606 -0.482073
rtoes -15.4443
lfemur -24.5103 -6.60247 -23.1767
ltibia 6.78152
lfoot -5.78939 -3.525
ltoes -34.1886
361
root -1.12486 17.9795 20.9748 -154.11 -3.49684 178.149
lowerback -25.8935 -1.41289 -7.39226
upperback -0.525022 -0.00506552 -0.176671
thorax 13.9608 -0.66123 4.01511
lowerneck -1.80376 -1.99041 -0.732861
upperneck 27.3923 -6.40492 1.89632
head 8.93787 -3.96917 0.0909586
rclavicle 7.25564e-015 3.00165e-014
rhumerus -38.4287 -24.7137 -73.7188
rradius 20.272
rwrist 9.32841
rhand -8.52612 -58.6839
rfingers 7.12502
rthumb 17.4026 632.075
lclavicle 7.25564e-015 3.00165e-014
lhumerus -28.0475 1.10551 84.5307
lradius 20.5693
lwrist -4.63933
lhand -21.4897 -13.0951
lfingers 7.12502
lthumb 4.90147 16.8282
rfemur -23.6284 3.61416 19.819
rtibia 5.53873
rfoot -16.7758 -0.307281
rtoes -14.8842
lfemur -24.518 -6.66667 -23.2414
ltibia 6.81196
lfoot -5.81583 -3.5509
ltoes -34.2396
362
root -1.1296 17.978 20.9758 -154.055 -3.53131 178.185
lowerback -25.9106 -1.47138 -7.34556
upperback -0.529494 -0.100161 -0.137792
thorax 13.977 -0.703023 3.99802
lowerneck -1.97147 -1.91892 -0.822691
upperneck 27.6556 -6.35232 1.90498
head 9.06399 -3.96007 0.101951
rclavicle 1.3418e-015 1.94809e-014
rhumerus -38.5964 -25.0175 -73.3622
rradius 20.3608
rwrist 9.43667
rhand -8.5807 -57.9182
rfingers 7.12502
rthumb 17.35 632.836
lclavicle 1.3418e-015 1.94809e-014
lhumerus -28.0432 1.05461 84.5185
lradius 20.9212
lwrist -4.77723
lhand -21.8019 -12.6359
lfingers 7.12502
lthumb 4.60008 17.2942
rfemur -23.7106 3.46346 19.885
rtibia 5.57472
rfoot -16.8042 -0.160736
rtoes -15.0797
lfemur -24.6061 -6.73099 -23.2038
ltibia 6.85825
lfoot -5.92148 -3.52862
ltoes -34.3048
363
root -1.13308 17.9781 20.9774 -154.01 -3.61084 178.269
lowerback -25.9127 -1.49419 -7.30175
upperback -0.532425 -0.150084 -0.0769672
thorax 13.9811 -0.724595 4.02506
lowerneck -1.9665 -1.92079 -0.710508
upperneck 27.6932 -6.34351 1.77098
head 9.06841 -3.95975 0.0372761
rclavicle 5.96354e-016 -5.96354e-015
rhumerus -38.7501 -25.3373 -73.0021
rradius 20.4317
rwrist 9.45775
rhand -8.60347 -57.2092
rfingers 7.12502
rthumb 17.3281 633.543
lclavicle 5.96354e-016 -5.96354e-015
lhumerus -28.0237 0.780892 84.6028
lradius 21.2695
lwrist -4.71064
lhand -21.9239 -12.5263
lfingers 7.12502
lthumb 4.4823 17.4063
rfemur -23.7714 3.45587 19.9875
rtibia 5.59702
rfoot -16.8176 -0.187222
rtoes -15.4628
lfemur -24.6991 -6.74839 -23.1083
ltibia 6.90311
lfoot -5.92437 -3.54424
ltoes -35.0921
364
root -1.13643 17.9808 20.9804 -154.03 -3.67499 178.299
lowerback -25.8039 -1.48607 -7.31645
upperback -0.518104 -0.142648 -0.04548
thorax 13.9373 -0.720102 4.07312
lowerneck -2.10709 -1.93939 -0.716609
upperneck 27.913 -6.41182 1.75898
head 9.17397 -3.99777 0.0189019
rclavicle 1.68967e-015 -2.0276e-014
rhumerus -38.8361 -25.5201 -72.7912
rradius 20.4661
rwrist 9.42971
rhand -8.20685 -56.8828
rfingers 7.12502
rthumb 17.7098 633.904
lclavicle 1.68967e-015 -2.0276e-014
lhumerus -27.9863 0.199967 84.8201
lradius 21.7175
lwrist -3.95085
lhand -21.359 -12.3946
lfingers 7.12502
lthumb 5.02772 17.5257
rfemur -23.7211 3.70262 19.9565
rtibia 5.54316
rfoot -16.8137 -0.49442
rtoes -15.5315
lfemur -24.726 -6.77858 -23.0704
ltibia 6.96476
lfoot -5.90322 -3.56098
ltoes -35.1433
365
root -1.14066 17.9823 20.9809 -154.067 -3.688 178.293
lowerback -25.7157 -1.489 -7.34392
upperback -0.492444 -0.14157 -0.0285688
thorax 13.9192 -0.719899 4.10919
lowerneck -2.02418 -1.96754 -0.694922
upperneck 27.8216 -6.41531 1.67537
head 9.12229 -4.00329 -0.00863649
rclavicle -6.5102e-015 4.37326e-015
rhumerus -38.8905 -25.8582 -72.4624
rradius 20.3994
rwrist 9.3753
rhand -7.74083 -55.9391
rfingers 7.12502
rthumb 18.1582 634.888
lclavicle -6.5102e-015 4.37326e-015
lhumerus -27.9476 -0.380468 85.0448
lradius 22.1525
lwrist -3.00725
lhand -20.6094 -12.3266
lfingers 7.12502
lthumb 5.75144 17.5753
rfemur -23.6042 4.21508 19.8024
rtibia 5.40814
rfoot -16.7905 -1.09088
rtoes -15.8421
lfemur -24.6982 -6.88863 -23.0632
ltibia 6.98366
lfoot -5.9195 -3.5171
ltoes -34.1194
366
root -1.14553 17.9814 20.9788 -154.047 -3.66269 178.337
lowerback -25.749 -1.4771 -7.32686
upperback -0.474655 -0.129297 0.00254787
thorax 13.9575 -0.715573 4.14038
lowerneck -1.93119 -2.01075 -0.643453
upperneck 27.7232 -6.42104 1.509
head 9.0625 -4.01464 -0.0688825
rclavicle 1.00386e-014 3.10104e-014
rhumerus -38.7409 -25.2151 -72.9285
rradius 20.7033
rwrist 8.80771
rhand -8.02886 -57.0564
rfingers 7.12502
rthumb 17.8811 633.746
lclavicle 1.00386e-014 3.10104e-014
lhumerus -27.8372 -0.499021 85.0826
lradius 22.3029
lwrist -2.8988
lhand -20.797 -12.4083
lfingers 7.12502
lthumb 5.57031 17.4985
rfemur -23.6001 4.64208 19.7209
rtibia 5.36883
rfoot -16.7906 -1.54592
rtoes -16.1846
lfemur -24.7193 -6.93935 -23.0185
ltibia 6.97234
lfoot -5.89511 -3.44935
ltoes -33.6661
367
root -1.15027 17.982 20.9798 -153.987 -3.63083 178.415
lowerback -25.7955 -1.44966 -7.28755
upperback -0.471389 -0.106664 0.0511339
thorax 13.9842 -0.705655 4.18294
lowerneck -2.23783 -2.09208 -0.706039
upperneck 28.1407 -6.58466 1.39174
head 9.26886 -4.11598 -0.132234
rclavicle 8.15017e-015 9.34288e-015
rhumerus -38.6855 -25.0299 -72.9954
rradius 20.7996
rwrist 8.54958
rhand -8.10848 -57.0668
rfingers 7.12502
rthumb 17.8045 633.728
lclavicle 8.15017e-015 9.34288e-015
lhumerus -27.6801 -0.282474 84.9896
lradius 22.3311
lwrist -3.41725
lhand -21.6271 -12.8633
lfingers 7.12502
lthumb 4.76883 17.063
rfemur -23.7319 4.84689 19.734
rtibia 5.46714
rfoot -16.8382 -1.64168
rtoes -16.1524
lfemur -24.8417 -6.89945 -22.941
ltibia 7.057
lfoot -5.92554 -3.40908
ltoes -33.5225
368
root -1.15507 17.9834 20.9821 -153.961 -3.61899 178.443
lowerback -25.7636 -1.44658 -7.26495
upperback -0.476833 -0.115753 0.0824459
thorax 13.9612 -0.708191 4.20293
lowerneck -1.93956 -2.11083 -0.622748
upperneck 27.7304 -6.4975 1.24196
head 9.05718 -4.0718 -0.169296
rclavicle -1.44119e-015 7.95139e-015
rhumerus -38.621 -24.8795 -73.0605
rradius 20.8527
rwrist 8.37533
rhand -8.48953 -56.7764
rfingers 7.12502
rthumb 17.4378 633.986
lclavicle -1.44119e-015 7.95139e-015
lhumerus -27.6312 -0.305285 84.9745
lradius 22.5216
lwrist -3.56806
lhand -21.9478 -13.2982
lfingers 7.12502
lthumb 4.45921 16.6348
rfemur -23.8335 5.117 19.6789
rtibia 5.58238
rfoot -16.902 -1.83057
rtoes -15.9769
lfemur -24.9316 -6.93222 -22.9059
ltibia 7.16801
lfoot -5.99026 -3.36156
ltoes -32.9795
